<?xml version="1.0" standalone="no"?>
<!DOCTYPE svg PUBLIC "-//W3C//DTD SVG 20010904//EN"
 "http://www.w3.org/TR/2001/REC-SVG-20010904/DTD/svg10.dtd">
<svg version="1.0" xmlns="http://www.w3.org/2000/svg"
 width="512.000000pt" height="512.000000pt" viewBox="0 0 512.000000 512.000000"
 preserveAspectRatio="xMidYMid meet">
<metadata>
Created by potrace 1.11, written by Peter Selinger 2001-2013
</metadata>
<g transform="translate(0.000000,512.000000) scale(0.100000,-0.100000)"
fill="#000000" stroke="none">
<path d="M2379 5116 c-2 -2 -24 -6 -49 -9 -25 -3 -52 -8 -60 -11 -8 -3 -28 -7
-45 -10 -207 -35 -519 -165 -763 -317 -366 -227 -578 -457 -666 -721 -33 -99
-38 -126 -41 -253 -5 -138 20 -282 65 -380 5 -11 21 -46 34 -78 28 -65 118
-206 179 -282 62 -77 209 -218 298 -285 246 -188 538 -310 776 -324 38 -3 36
-13 -13 -78 -81 -105 -93 -122 -109 -155 -13 -29 -13 -36 1 -65 15 -32 14 -35
-29 -128 -25 -52 -55 -126 -67 -165 -19 -59 -29 -75 -67 -105 -176 -136 -256
-210 -290 -268 -15 -25 -38 -48 -57 -56 -66 -28 -165 -163 -216 -296 -55 -144
-148 -174 -304 -100 -46 22 -93 40 -104 40 -12 0 -23 4 -26 8 -6 10 -31 9 -61
-1 -50 -17 -67 -128 -36 -241 69 -252 275 -537 412 -569 22 -6 40 4 105 54 93
71 180 122 256 148 67 23 106 30 227 38 l93 6 -27 -41 c-27 -41 -39 -99 -39
-188 0 -103 92 -236 187 -271 18 -6 79 -12 137 -12 l105 -1 61 43 c34 23 96
73 138 111 111 102 179 150 291 208 190 97 288 181 349 298 69 130 84 228 100
651 5 118 11 154 37 205 10 19 13 20 82 7 101 -17 135 -16 145 5 5 9 31 99 57
200 27 100 50 180 52 178 2 -2 -5 -40 -17 -85 -34 -135 -27 -183 31 -203 28
-10 29 -12 24 -57 -6 -50 -7 -248 -1 -296 2 -16 7 -57 11 -90 13 -113 46 -260
87 -390 22 -71 48 -159 58 -195 9 -36 21 -65 28 -65 6 0 25 -16 41 -35 28 -34
29 -36 11 -55 -35 -39 -34 -61 4 -103 69 -76 197 -124 253 -95 23 12 37 13 73
4 132 -33 194 -36 239 -13 57 30 91 68 91 102 0 24 -6 30 -42 44 -41 14 -108
30 -173 40 -46 8 -75 18 -75 26 0 14 -93 70 -116 70 -31 0 -36 12 -25 62 6 24
13 66 16 93 4 28 8 61 11 75 22 134 22 527 0 645 -2 11 -7 40 -11 65 -9 54
-40 151 -66 204 -18 39 -18 40 0 53 25 17 42 69 37 110 -5 35 -18 64 -52 108
-63 84 -114 214 -189 480 -52 181 -86 235 -169 270 -44 19 -153 27 -178 14
-11 -6 -21 -4 -30 4 -7 7 -35 23 -63 37 -27 14 -52 26 -54 27 -2 2 9 13 25 25
44 34 225 216 271 273 116 145 230 430 279 700 18 102 27 396 14 465 -5 25
-11 65 -15 90 -14 105 -86 280 -153 370 -43 58 -144 152 -226 208 -106 74
-299 161 -412 187 -178 41 -202 43 -425 44 -125 0 -228 -1 -230 -3z"/>
</g>
</svg>
